<svg xmlns="http://www.w3.org/2000/svg" xmlns:xlink="http://www.w3.org/1999/xlink" version="1.1" x="0px" y="0px" width="100px" height="100px" viewBox="0 0 100 100" enable-background="new 0 0 100 100" opacity="0.5" xml:space="preserve">
<g id="Captions">
</g>
<g id="Your_Icon">
	<path d="M5.334,73.714c-0.472-2.84,0.016-5.719,2.107-8.361c3.263-4.126,8.923-4.97,13.496-6.902   c6.229-2.633,7.146-10.843,11.83-15.19c1.395-1.294,3.441-2.23,5.402-1.868c4.861,0.896-2.222,7.439-1.594,9.94   c0.295,1.17,1.748,1.498,2.75,1.787c1.173-1.17,2.353-2.332,3.53-3.496c2.909-2.874,5.818-5.748,8.726-8.622   c3.422-3.381,6.842-6.762,10.263-10.143c3.03-2.994,6.062-5.991,9.091-8.985c2.282-2.255,5.74-4.381,4.727-8.02   c-0.506-1.823,0.158-2.272,1.655-3.049c1.108-0.577,2.184-1.242,3.279-1.845c2.74-1.504,5.44-3.09,8.162-4.626   c2.064-1.165,4.176-2.362,5.664,0.14c0.822,1.384,0.864,3.319-0.499,4.386c-1.365,1.065-3.646,0.13-4.775,1.715   c-0.62,0.869-1.11,1.843-1.616,2.781c-1.015,1.884-2.081,3.708-3.645,5.195c-1.745-1.085-3.95,0.135-5.208,1.394   c-2.876,2.875-38.636,41.368-39.028,41.789c-0.28,0.302,1.783,1.905,2.031,2.022c1.167,0.548,2.434,0.352,3.499-0.336   c0.881-0.568,1.21-1.112,2.315-0.876c1.995,0.424,1.935,2.555,1.292,4.057c-0.973,2.275-2.697,4.356-4.651,5.869   c-2.131,1.646-4.781,2.375-6.991,3.891c-6.31,4.33-2.907,18.655-13.541,17.829c-4.438-0.346-8.49-5.232-11.322-8.273   C9.279,82.688,6.085,78.25,5.334,73.714z"/>
</g>
</svg>