<svg xmlns="http://www.w3.org/2000/svg" xmlns:xlink="http://www.w3.org/1999/xlink" version="1.1" x="0px" y="0px" width="100px" height="100px" viewBox="0 0 100 100" enable-background="new 0 0 100 100" opacity="0.5" xml:space="preserve">
<g id="Captions">
	<rect x="-192" width="185" height="99"/>
	<rect y="-36" width="100" height="30"/>
	<text transform="matrix(1 0 0 1 66 -19.5)" fill="#000000" font-family="'Helvetica'" font-size="2.4">http://thenounproject.com</text>
	<text transform="matrix(1 0 0 1 7.166 -24.5)"><tspan x="0" y="0" fill="#000000" font-family="'Helvetica-Bold'" font-size="6.1578">The Noun Project</tspan><tspan x="1.12" y="4.8" fill="#000000" font-family="'Helvetica-Bold'" font-size="4">Icon Template</tspan></text>
	<text transform="matrix(1 0 0 1 -178.5 10.5)" fill="#000000" font-family="'Helvetica-Bold'" font-size="6.1578">Reminders</text>
	<line fill="#000000" stroke="#FFFFFF" stroke-miterlimit="10" x1="8" y1="-14.5" x2="18" y2="-14.5"/>
	<line fill="#000000" stroke="#FFFFFF" stroke-miterlimit="10" x1="-179" y1="16.5" x2="-162" y2="16.5"/>
	<g>
		<g>
			<g>
				<rect x="-170.802" y="31.318" fill="#000000" width="8.721" height="8.642"/>
				<path fill="#000000" d="M-164.455,42.312h4.747v-4.703h-4.747V42.312z M-159.266,42.749h-5.63V37.17h5.63V42.749      L-159.266,42.749z M-166.221,44.062h8.279v-8.203h-8.279V44.062L-166.221,44.062z M-157.5,44.5h-9.163v-9.079h9.163V44.5      L-157.5,44.5z"/>
				<polygon fill="#000000" points="-166.149,44.133 -166.292,43.991 -158.013,35.787 -157.871,35.929     "/>
			</g>
		</g>
	</g>
	<rect x="-179" y="58" fill="none" width="35" height="32.5"/>
	<text transform="matrix(1 0 0 1 -179 60.1572)"><tspan x="0" y="0" fill="#000000" font-family="'Helvetica-Bold'" font-size="3">Strokes</tspan><tspan x="0" y="5" fill="#000000" font-family="'Helvetica'" font-size="2.4">Try to keep strokes at 4px</tspan><tspan x="0" y="10" fill="#000000" font-family="'Helvetica'" font-size="2.4">Minimum stroke weight is 2px</tspan><tspan x="0" y="14.5" fill="#000000" font-family="'Helvetica'" font-size="2.4">For thicker strokes use even </tspan><tspan x="0" y="17.5" fill="#000000" font-family="'Helvetica'" font-size="2.4">numbers: 6px, 8px etc.</tspan><tspan x="0" y="22" fill="#000000" font-family="'Helvetica-Bold'" font-size="2.4">Remember to expand strokes </tspan><tspan x="0" y="25" fill="#000000" font-family="'Helvetica-Bold'" font-size="2.4">before saving as an SVG </tspan></text>
	<rect x="-136.5" y="58" fill="none" width="35" height="32.5"/>
	<text transform="matrix(1 0 0 1 -136.5 60.1572)"><tspan x="0" y="0" fill="#000000" font-family="'Helvetica-Bold'" font-size="3">Size</tspan><tspan x="0" y="5" fill="#000000" font-family="'Helvetica'" font-size="2.4">Cannot be wider or taller than </tspan><tspan x="0" y="8.5" fill="#000000" font-family="'Helvetica'" font-size="2.4">100px (artboard size)</tspan><tspan x="0" y="13.5" fill="#000000" font-family="'Helvetica'" font-size="2.4">Scale your icon to fill as much of </tspan><tspan x="0" y="16.5" fill="#000000" font-family="'Helvetica'" font-size="2.4">the artboard as possible</tspan></text>
	<rect x="-94" y="58" fill="none" width="35" height="32.5"/>
	<text transform="matrix(1 0 0 1 -94 60.1572)"><tspan x="0" y="0" fill="#000000" font-family="'Helvetica-Bold'" font-size="3">Ungroup</tspan><tspan x="0" y="5" fill="#000000" font-family="'Helvetica'" font-size="2.4">If your design has more than one </tspan><tspan x="0" y="8" fill="#000000" font-family="'Helvetica'" font-size="2.4">shape, make sure to ungroup</tspan></text>
	<rect x="-50" y="58" fill="none" width="35" height="32.5"/>
	<text transform="matrix(1 0 0 1 -50 60.1572)"><tspan x="0" y="0" fill="#000000" font-family="'Helvetica-Bold'" font-size="3">Save as</tspan><tspan x="0" y="5" fill="#000000" font-family="'Helvetica'" font-size="2.4">Save as .SVG and make sure </tspan><tspan x="0" y="8" fill="#000000" font-family="'Helvetica'" font-size="2.4">&#8220;Use Artboards&#8221; is checked</tspan></text>
	<text transform="matrix(1.0074 0 0 1 -125.542 30.5933)" fill="#000000" font-family="'Helvetica'" font-size="2.5731">100px</text>
	<text transform="matrix(1.0074 0 0 1 -41 39)" fill="#000000" font-family="'Helvetica-Bold'" font-size="5.1462">.SVG</text>
	<rect x="-126.514" y="34.815" fill="#000000" width="10.261" height="10.185"/>
	<rect x="-126.477" y="31.766" fill="#000000" width="0.522" height="2.337"/>
	<rect x="-116.812" y="31.766" fill="#000000" width="0.523" height="2.337"/>
	<rect x="-127" y="32.337" fill="#000000" width="11.233" height="0.572"/>
	<g>
		<rect x="-83.805" y="33.844" fill="#000000" width="10.305" height="10.156"/>
		<rect x="-76.809" y="28.707" fill="#000000" width="3.308" height="3.261"/>
	</g>
	<rect x="-178.5" y="22.5" fill="#000000" stroke="#FFFFFF" stroke-miterlimit="10" width="30" height="30"/>
	<rect x="-136.5" y="22.5" fill="#000000" stroke="#FFFFFF" stroke-miterlimit="10" width="30" height="30"/>
	<rect x="-93.5" y="22.5" fill="#000000" stroke="#FFFFFF" stroke-miterlimit="10" width="30" height="30"/>
	<rect x="-49.5" y="22.5" fill="#000000" stroke="#FFFFFF" stroke-miterlimit="10" width="30" height="30"/>
</g>
<g id="Your_Icon">
	<g>
		<path display="none" fill="#000000" stroke="#FFFFFF" stroke-width="8" d="M12.095,72.924c0,6.605,15.476,11.057,36.328,11.057"/>
		<path fill="#000000" d="M89.517,32.236c-0.095-0.007-0.186-0.002-0.276,0.005c0.763,0.177,1.306,0.838,1.224,1.972l-0.623,8.544    c-0.082,1.124-0.702,1.699-1.472,1.774c0.017,0.003,0.033,0.01,0.052,0.014l-1.667,25.34c0.889,0.169,1.531,0.736,1.467,1.691    l-0.489,7.237c-0.062,0.906-0.708,1.378-1.545,1.465c0.133,0.028,0.271,0.049,0.412,0.059c1.065,0.071,1.967-0.4,1.794-1.479    l0.487-7.236c0.223-0.751-0.112-1.264-0.695-1.531c-0.042-0.423-0.134-0.843-0.277-1.26l1.606-24.432    c0.481-0.255,0.83-0.78,0.89-1.601l0.624-8.544C91.12,32.981,90.427,32.302,89.517,32.236z"/>
		<path fill="#000000" d="M13.837,71.419l0.02,0.502c1.501,2.467,3.712,4.304,6.299,5.578c2.482,1.222,4.99,2.288,7.649,3.023    c1.815,0.503,3.149,0.673,4.722,0.934c1.713,0.282,3.395,0.596,5.124,0.779c3,0.317,6.002,0.566,9.016,0.665v-1.425    c0-0.861,0.554-1.368,1.319-1.54V55.345c-0.525-0.142-0.947-0.478-1.162-1.006c-3.857-0.039-7.816-0.214-11.613-0.841    c-1.925-0.318-3.878-0.617-5.795-1.024c-1.72-0.366-2.862-0.429-4.404-0.941c-2.862-0.952-5.953-1.954-8.695-3.589    c-1.769-1.055-3.344-2.313-4.664-3.829l1.725,26.256C13.646,70.625,13.82,70.97,13.837,71.419z"/>
		<path fill="#000000" d="M36.566,84.948c-1.925-0.318-3.878-0.617-5.795-1.024c-1.72-0.366-2.863-0.429-4.405-0.94    c-2.862-0.951-5.952-1.954-8.695-3.59c-1.328-0.792-2.55-1.697-3.635-2.74l0.076,2.017c0.03,0.775-0.418,1.271-1.081,1.5    c5.899,4.384,18.649,7.798,33.635,8.097v-2.5C43.292,85.696,39.868,85.494,36.566,84.948z"/>
		<path fill="#000000" d="M98.655,11.145c-0.407-1.253-1.347-1.388-2.601-0.981l-14.836,5.1c-6.608-4.261-16.805-7.181-28.462-7.741    C52.403,6.503,51.34,6,50.083,6c-0.21,0-0.414,0.015-0.61,0.043C49.277,6.015,49.074,6,48.863,6c-1.23,0-2.273,0.483-2.648,1.459    c-11.759,0.333-22.166,3.06-29.111,7.172L4.108,10.164c-1.253-0.407-2.193-0.272-2.6,0.981c-0.407,1.254-0.133,2.467,1.121,2.874    l10.757,3.224c-3.323,2.802-5.222,6.038-5.222,9.487c0,0.581,0.057,1.156,0.163,1.725c-0.108,1.246-0.163,2.629-0.163,4.16    c0,0.053,0.006,0.107,0.007,0.161c-0.266,0.324-0.424,0.785-0.406,1.393l0.247,8.563c0.018,0.614,0.206,1.068,0.493,1.376    l1.583,24.083c-0.346,0.734-0.532,1.482-0.555,2.237c-0.258,0.267-0.41,0.623-0.393,1.078l0.275,7.252    c0.041,1.08,0.959,1.594,2.066,1.573c0.122-0.002,0.238-0.012,0.352-0.026c-0.952-0.081-1.696-0.591-1.733-1.561l-0.275-7.252    c-0.037-0.963,0.657-1.499,1.592-1.62c-0.004,0-0.008-0.002-0.012-0.002L9.744,44.584c0.084-0.002,0.163-0.017,0.242-0.031    C9.212,44.45,8.61,43.85,8.577,42.716L8.33,34.152c-0.037-1.276,0.686-1.924,1.597-1.951c0.914-0.026,1.67,0.579,1.708,1.855    l0.165,5.684c0.223,0.109,0.429,0.286,0.587,0.556c1.501,2.557,3.763,4.449,6.413,5.753c2.482,1.221,4.991,2.287,7.649,3.023    c1.816,0.503,3.149,0.673,4.721,0.933c1.714,0.282,3.396,0.597,5.125,0.779c3.45,0.366,6.903,0.64,10.372,0.699v-6.677    c0-0.208,0.029-0.394,0.071-0.567c-19.36-0.539-34.693-7.758-34.693-16.59c0-3.33,2.181-6.432,5.935-9.031l21.069,6.312    c0.551,0.179,1.067,0.305,1.508,0.285c0.125,1.036,0.832,1.955,1.889,2.298c1.453,0.471,3.012-0.324,3.484-1.776    c0.472-1.453-0.324-3.013-1.776-3.484c-1.034-0.335-2.119-0.028-2.83,0.699c-0.376-0.194-0.905-0.318-1.47-0.5l-17.863-6.141    c6.756-3.253,16.384-5.288,27.071-5.288c11.133,0,21.119,2.208,27.905,5.703l-16.656,5.727c-0.565,0.182-1.094,0.307-1.471,0.5    c-0.712-0.728-1.797-1.034-2.829-0.699c-1.453,0.471-2.249,2.031-1.776,3.484c0.472,1.453,2.031,2.248,3.484,1.776    c1.057-0.343,1.763-1.262,1.89-2.298c0.439,0.02,0.957-0.106,1.507-0.285l19.631-5.883c3.384,2.51,5.333,5.454,5.333,8.602    c0,8.873-15.468,16.119-34.949,16.602c-0.215-0.918-0.966-1.376-1.868-1.376c-0.117,0-0.231,0.009-0.343,0.025    c0.917,0.115,1.618,0.742,1.618,1.906v6.805c0.165-0.069,0.352-0.112,0.567-0.114c3.78-0.021,7.54-0.313,11.296-0.713    c1.729-0.183,3.411-0.496,5.125-0.779c1.572-0.26,2.905-0.43,4.723-0.933c2.657-0.735,5.166-1.803,7.648-3.023    c2.649-1.305,4.911-3.195,6.413-5.753c0.12-0.206,0.268-0.358,0.43-0.469l0.427-5.853c0.094-1.273,0.878-1.845,1.788-1.778    c0.06,0.004,0.116,0.018,0.174,0.028c-0.01-1.361-0.063-2.604-0.166-3.728c0.109-0.581,0.17-1.17,0.17-1.766    c0-3.189-1.624-6.196-4.494-8.846l12.896-3.865C98.787,13.611,99.062,12.398,98.655,11.145z"/>
		<path fill="#000000" d="M83.869,78.554l0.086-1.263c-0.902,0.777-1.881,1.477-2.932,2.103c-2.742,1.636-5.832,2.639-8.693,3.59    c-1.543,0.512-2.686,0.574-4.405,0.941c-1.917,0.406-3.87,0.705-5.796,1.024c-3.79,0.626-7.742,0.801-11.592,0.84v2.94    c0,0.967-0.695,1.49-1.605,1.591c0.107,0.013,0.217,0.021,0.33,0.021c1.07,0,1.936-0.53,1.936-1.612v-0.464    c15.028-0.317,27.79-3.769,33.62-8.183C84.215,79.818,83.818,79.309,83.869,78.554z"/>
		<path fill="#000000" d="M50.537,81.476v1.461c3.515-0.055,7.012-0.331,10.509-0.701c1.729-0.184,3.409-0.497,5.123-0.779    c1.573-0.261,2.907-0.431,4.723-0.934c2.657-0.735,5.167-1.802,7.648-3.023c2.271-1.118,4.252-2.671,5.718-4.7l0.101-1.483    c0.028-0.422,0.187-0.748,0.429-0.987l1.681-25.585c-1.195,1.237-2.57,2.294-4.088,3.2c-2.742,1.635-5.832,2.637-8.694,3.589    c-1.542,0.514-2.685,0.575-4.404,0.941c-1.918,0.407-3.87,0.706-5.796,1.024c-4.048,0.669-8.284,0.826-12.381,0.849    c-0.26,0.001-0.48-0.059-0.667-0.156c-0.11,0.353-0.305,0.628-0.559,0.829v25.188C50.28,80.472,50.537,80.892,50.537,81.476z"/>
	</g>
</g>
</svg>