<?xml version="1.0" encoding="utf-8"?>
<!-- Generator: Adobe Illustrator 16.2.1, SVG Export Plug-In . SVG Version: 6.00 Build 0)  -->
<!DOCTYPE svg PUBLIC "-//W3C//DTD SVG 1.1//EN" "http://www.w3.org/Graphics/SVG/1.1/DTD/svg11.dtd">
<svg version="1.1"
	 id="svg2876" inkscape:version="0.47 r22583" sodipodi:docname="saxophone.svg" xmlns:dc="http://purl.org/dc/elements/1.1/" xmlns:inkscape="http://www.inkscape.org/namespaces/inkscape" xmlns:sodipodi="http://sodipodi.sourceforge.net/DTD/sodipodi-0.dtd" xmlns:rdf="http://www.w3.org/1999/02/22-rdf-syntax-ns#" xmlns:svg="http://www.w3.org/2000/svg" xmlns:cc="http://creativecommons.org/ns#"
	 xmlns="http://www.w3.org/2000/svg" xmlns:xlink="http://www.w3.org/1999/xlink" x="0px" y="0px" width="100px" height="100px"
	 viewBox="0 0 100 100" opacity="0.5" enable-background="new 0 0 100 100" xml:space="preserve">
<sodipodi:namedview  inkscape:pageshadow="2" inkscape:window-maximized="1" inkscape:current-layer="svg2876" inkscape:window-width="1280" inkscape:window-x="-8" inkscape:pageopacity="0" inkscape:window-height="738" inkscape:window-y="-8" id="namedview2888" showgrid="false" gridtolerance="10" inkscape:cx="-14.263313" borderopacity="1" guidetolerance="10" objecttolerance="10" inkscape:zoom="2.6641777" inkscape:cy="44.29134" pagecolor="#ffffff" bordercolor="#666666">
	</sodipodi:namedview>
<defs>
	
	
		<inkscape:perspective  inkscape:persp3d-origin="44.29134 : 29.52756 : 1" id="perspective2892" inkscape:vp_z="88.58268 : 44.29134 : 1" inkscape:vp_x="0 : 44.29134 : 1" sodipodi:type="inkscape:persp3d" inkscape:vp_y="0 : 1000 : 0">
		</inkscape:perspective>
	
		<inkscape:perspective  inkscape:persp3d-origin="45 : 33.333333 : 1" id="perspective3682" inkscape:vp_z="90 : 50 : 1" inkscape:vp_x="0 : 50 : 1" sodipodi:type="inkscape:persp3d" inkscape:vp_y="0 : 1000 : 0">
		</inkscape:perspective>
	
		<inkscape:perspective  inkscape:persp3d-origin="44.29134 : 29.52756 : 1" id="perspective3743" inkscape:vp_z="88.58268 : 44.29134 : 1" inkscape:vp_x="0 : 44.29134 : 1" sodipodi:type="inkscape:persp3d" inkscape:vp_y="0 : 1000 : 0">
		</inkscape:perspective>
	
		<inkscape:perspective  inkscape:persp3d-origin="44.29134 : 29.52756 : 1" id="perspective3769" inkscape:vp_z="88.58268 : 44.29134 : 1" inkscape:vp_x="0 : 44.29134 : 1" sodipodi:type="inkscape:persp3d" inkscape:vp_y="0 : 1000 : 0">
		</inkscape:perspective>
	
		<inkscape:perspective  inkscape:persp3d-origin="44.29134 : 29.52756 : 1" id="perspective3795" inkscape:vp_z="88.58268 : 44.29134 : 1" inkscape:vp_x="0 : 44.29134 : 1" sodipodi:type="inkscape:persp3d" inkscape:vp_y="0 : 1000 : 0">
		</inkscape:perspective>
</defs>
<path id="path2953" d="M53.105,13.094l-0.188,62c-0.006,1.617-0.783,5.094-2.688,5.094c-1.903,0-2.094-4.268-1.875-5.688
	c1.088-7.078,1.768-18.469-3.812-23.812L28.824,66.406C36.225,68.883,33.199,80,35.199,86s5.97,8,12.188,8
	c10.945,0,17.843-8.385,17.125-17.125l-5.219-63.781c-0.158-1.92-0.066-3.812,1.906-3.812c1.604,0,2.904,1.265,3.75,2.969
	c0.193,0.391,1.168,3.225,1.312,3.656c0.476,1.427,2.398,1.438,2.875,1.438c2.854,0,3.801-0.502,6.656-2.406h-7.125
	c-0.045-0.189-0.914-2.76-0.969-2.938c-1.176-3.785-4.869-5.868-8.25-5.812S53.005,8.42,53.105,13.094z M59.324,42.594
	c0,1.183-0.942,2.156-2.125,2.156s-2.156-0.974-2.156-2.156s0.974-2.125,2.156-2.125S59.324,41.411,59.324,42.594z M59.668,50.938
	c0,1.183-0.974,2.125-2.156,2.125s-2.125-0.942-2.125-2.125s0.942-2.156,2.125-2.156S59.668,49.755,59.668,50.938z M60.012,59.25
	c0,1.183-0.974,2.156-2.156,2.156s-2.125-0.974-2.125-2.156s0.942-2.125,2.125-2.125S60.012,58.067,60.012,59.25z"/>
<path id="path2951" d="M25.758,66.635l19.586-19.584c0.443-0.444,0.443-1.171,0-1.615l-0.404-0.404
	c-0.444-0.444-1.172-0.444-1.615,0L23.739,64.617c-0.444,0.443-0.444,1.17,0,1.614l0.403,0.403
	C24.587,67.08,25.314,67.08,25.758,66.635z"/>
</svg>
